<!-- Generator: Adobe Illustrator 22.0.0, SVG Export Plug-In  -->
<svg version="1.1"
     xmlns="http://www.w3.org/2000/svg" xmlns:xlink="http://www.w3.org/1999/xlink" xmlns:a="http://ns.adobe.com/AdobeSVGViewerExtensions/3.0/"
     x="0px" y="0px" width="662.4px" height="233.1px" viewBox="0 0 662.4 233.1" style="enable-background:new 0 0 662.4 233.1;"
     xml:space="preserve">
<style type="text/css">
	.st0{fill:#FFFFFF;}
	.st1{fill:#77EF78;}
</style>
    <defs>
</defs>
    <g>
	<path class="st0" d="M508,130.5c0,9.3-3.3,17.2-9.8,23.7c-6.5,6.5-14.4,9.8-23.7,9.8c-9.3,0-17.2-3.3-23.7-9.8
		c-6.5-6.5-9.8-14.4-9.8-23.7c0-9.3,3.3-17.2,9.8-23.7c6.5-6.5,14.4-9.8,23.7-9.8c9.3,0,17.2,3.3,23.7,9.8
		C504.7,113.4,508,121.3,508,130.5z M496,130.5c0-6.5-2-11.8-5.9-15.9c-4-4.1-9.1-6.2-15.5-6.2c-6.2,0-11.3,2-15.3,6.1
		c-4,4.1-6,9.4-6,16c0,6.6,2,12,5.9,16.1c3.9,4.1,9.1,6.1,15.5,6.1c6.4,0,11.6-2,15.5-6.1C494,142.5,496,137.2,496,130.5z"/>
        <path class="st0" d="M571.7,162c0,5.7-0.5,10.2-1.5,13.4c-1.3,4.4-3.9,8.2-7.8,11.4c-2.7,2.2-6,3.9-10,5.1c-4,1.2-7.9,1.7-11.8,1.7
		c-4.1,0-8-0.4-11.7-1.2s-7.6-2-11.8-3.5l1.2-11.6c3.4,1.7,6.8,3,10.2,3.8c3.4,0.8,6.8,1.3,10.2,1.3c3.5,0,6.4-0.3,8.7-0.8
		c3.4-0.8,6.1-2.2,8.1-4c2-1.9,3.3-4.3,3.8-7.2c0.3-1.4,0.4-4,0.4-7.6v-7.4c-1.1,1.8-2.4,3.3-3.9,4.4c-2.1,1.7-4.8,2.9-7.9,3.6
		c-1.1,0.3-2.3,0.4-3.5,0.5c-1.2,0.1-2.6,0.1-4.1,0.1c-1.3,0-2.7-0.1-4.2-0.2c-1.5-0.1-3.2-0.5-5-1.2c-6.1-2.1-10.3-6.3-12.5-12.6
		c-1.5-4.2-2.3-9.9-2.3-17.2V98.5h11.8v32.1c0,5.4,0.2,9,0.7,11c0.9,4.1,3,7.2,6.1,9.3c1.2,0.7,2.4,1.2,3.8,1.5
		c1.3,0.3,2.9,0.5,4.5,0.5c3.6,0,6.8-1.1,9.7-3.2c2.9-2.1,4.9-5.3,5.9-9.5c0.6-2.4,0.9-5.6,0.9-9.5V98.5h11.8V162z"/>
        <path class="st0" d="M662.4,162.7h-12.6l-7.9-49.4l-0.3-1l-0.1,0.4c-0.3,0.6-0.5,1.4-0.7,2.4c-0.2,1-0.4,1.7-0.6,2.2l-11.5,35.6
		c-1.4,4.4-2.7,7.3-3.7,8.6c-1.2,1.7-2.9,2.5-5.1,2.5c-2.1,0-3.8-0.8-5.1-2.4c-1.2-1.6-2.5-4.5-3.9-8.7l-11.2-35.5
		c-0.3-1-0.5-1.9-0.7-2.6c-0.2-0.8-0.4-1.4-0.7-2.1l-0.1-0.4l-0.3,1l-7.9,49.4h-12.6l10.7-55.8c0.4-2.7,1.2-4.7,2.3-6.3
		c1.6-2.4,3.8-3.5,6.5-3.5c2.8,0,4.9,0.9,6.5,2.7c1,1.2,1.9,3.2,2.8,5.9l9.7,31.5l1.8,6.4l1.4,5.1c0.1,0.4,0.2,0.8,0.3,1
		c0.1,0.2,0.2,0.4,0.3,0.5l0.6-1.4l2.9-11.4l10.1-31.8c1.2-3.6,2.4-5.9,3.8-7c1.3-1.1,3.2-1.6,5.5-1.6c2.7,0,4.9,1.2,6.5,3.5
		c1.1,1.5,1.8,3.6,2.3,6.3L662.4,162.7z"/>
</g>
    <g>
	<path class="st0" d="M418.4,42.1h-20.2V95h-11.8V42.1h-20.2V30.9h52.2V42.1z"/>
</g>
    <g>
	<path class="st0" d="M65.7,93.6H53.2V11.8H12.5v81.8H0V0h65.7V93.6z"/>
        <path class="st0" d="M146.5,62.5c0,9.9-3.4,17.9-10.2,24c-6.3,5.6-13.9,8.4-22.9,8.4c-3.3,0-6.5-0.5-9.6-1.5s-5.9-2.6-8.3-4.6V76.5
		c2.7,2.6,5.5,4.4,8.1,5.5s5.5,1.7,8.3,1.7c6.7,0,12.1-2,16.3-6c4.2-4,6.3-9.2,6.3-15.5c0-6.7-2.1-12.2-6.3-16.5
		c-4.2-4.3-9.4-6.4-15.6-6.4c-5.9,0-10.7,1.7-14.4,5.2c-5,4.7-7.5,12.1-7.5,22.2v56H78.9V65.8c0-13.5,3.7-23.6,11.2-30.1
		c5.9-5.1,13.3-7.6,22.3-7.6c9.4,0,17.3,3.1,23.8,9.3C143.1,43.8,146.5,52.2,146.5,62.5z"/>
        <path class="st0" d="M220.3,61.5c0,9.3-3.3,17.2-9.8,23.7c-6.5,6.5-14.4,9.8-23.7,9.8s-17.2-3.3-23.7-9.8
		c-6.5-6.5-9.8-14.4-9.8-23.7c0-9.3,3.3-17.2,9.8-23.7c6.5-6.5,14.4-9.8,23.7-9.8s17.2,3.3,23.7,9.8
		C217.1,44.3,220.3,52.2,220.3,61.5z M208.3,61.5c0-6.5-2-11.8-5.9-15.9c-4-4.1-9.1-6.2-15.5-6.2c-6.2,0-11.3,2-15.3,6.1
		c-4,4.1-6,9.4-6,16c0,6.6,2,12,5.9,16.1c3.9,4.1,9.1,6.1,15.5,6.1c6.4,0,11.6-2,15.5-6.1C206.4,73.5,208.3,68.1,208.3,61.5z"/>
        <path class="st0" d="M294,65.2c-0.6,6.7-2.8,12.6-6.7,17.5c-2.5,3.2-5.7,5.9-9.5,8c-2.4,1.4-5.1,2.5-8.1,3.2c-3,0.7-6.1,1-9.1,1
		c-5.2,0-10.2-1.2-15-3.5c-5.6-2.7-10.1-6.7-13.4-11.9c-3.3-5.2-5-11.2-5-18c0-9.5,3.2-17.5,9.6-23.9c6.4-6.4,14.3-9.6,23.7-9.6
		c6.6,0,12.7,1.7,18.1,5.1c5.5,3.4,9.8,8.5,12.9,15.3l-43.3,24l-4.8-9.3l31.7-17.6c-2.1-2.4-4.5-4-7.1-4.8c-2.6-0.9-5.2-1.3-7.7-1.3
		c-6.2,0-11.3,2.1-15.1,6.2c-3.9,4.1-5.8,9.4-5.8,15.9c0,4.4,0.9,8.2,2.6,11.5c1.8,3.3,4.1,5.8,7,7.6c1.6,1,3.4,1.8,5.4,2.3
		c2,0.5,4,0.8,6,0.8c2.4,0,4.5-0.2,6.5-0.6c1.9-0.4,3.8-1.1,5.7-2.2c2.9-1.7,5.2-4,7-7.1c1.8-3.1,2.7-6.5,2.7-10.1L294,65.2z"/>
</g>
    <g>
	<rect x="301.9" y="31.6" class="st0" width="11.9" height="63.5"/>
</g>
    <polygon class="st1" points="382.8,131.7 382.8,131.7 321.4,193.1 319,190.8 380.5,129.4 "/>
    <polygon class="st1" points="394.5,120 392.5,121.9 392.5,121.9 390,124.4 389.9,124.6 389.9,124.6 387.7,126.7 387.6,126.9
	387.6,126.9 385.1,129.4 385.1,129.4 383.1,127.4 381.2,129.4 380.8,129 385.2,124.6 387.6,122.3 390.2,119.6 392.2,117.7 "/>
    <polygon class="st1" points="385.2,134.2 387.6,136.5 326.1,197.9 323.8,195.6 385.2,134.2 "/>
    <polygon class="st1" points="390.4,129.4 392.5,131.5 392.3,131.7 389.9,134.2 387.7,132 387.6,131.9 387.6,131.9 390,129.4
	390.2,129.2 "/>
    <polygon class="st1" points="397.3,126.7 394.8,129.2 394.7,129.4 392.5,127.2 392.4,127.1 395,124.4 395.2,124.6 395.2,124.6 "/>
    <polygon class="st1" points="404.3,129.7 402.3,131.7 399.8,134.2 399.8,134.2 394.8,139.1 394.8,139.2 392.9,141.1 392.5,141.5
	331.1,202.9 328.8,200.6 390.2,139.2 392.2,141.1 394.5,138.8 392.5,136.8 395,134.4 395,134.4 395.2,134.2 397.2,136.1 399.3,134
	397.3,132 397.3,132 401.9,127.4 403.9,129.4 "/>
    <path class="st0" d="M547.9,128.8"/>
    <path class="st1" d="M438.2,233.1"/>
    <path class="st1" d="M443.2,228.1"/>
    <polygon class="st1" points="392.5,121.9 395,124.4 392.5,121.9 390.6,120 392.5,118 392.9,117.7 394.8,119.6 394.5,120 "/>
    <polygon class="st1" points="395,124.4 395.2,124.6 395.2,124.6 "/>
    <polygon class="st1" points="466,190.8 463.7,193.1 400,129.4 402.3,127.1 402.3,127.1 404.3,129 404.6,129.4 "/>
    <polygon class="st1" points="461.2,195.6 458.9,197.9 397.2,136.1 399.3,134 397.3,132 397.3,132 394.7,129.4 392.5,127.2
	392.4,127.1 389.9,124.6 387.7,126.7 385.8,124.8 387.9,122.6 388.1,122.5 390,124.4 392.5,126.9 392.7,127.1 394.8,129.2
	395,129.4 397.5,131.9 399.8,134.2 399.8,134.2 "/>
    <polygon class="st1" points="456.2,200.6 453.9,202.9 392.2,141.1 394.5,138.8 394.8,139.1 394.8,139.2 "/>
    <polygon class="st1" points="321.1,70 321.1,70 319,68 319.1,68 "/>
    <polygon class="st1" points="394.5,138.8 392.2,141.1 390.2,139.2 390.2,139.1 387.6,136.5 387.6,136.5 385.2,134.2 385.2,134.2
	382.8,131.7 382.8,131.7 380.5,129.4 380.8,129 381.2,129.4 383.1,127.4 385.1,129.4 385.1,129.4 387.6,131.9 387.6,131.9
	387.7,132 389.9,134.2 389.9,134.2 392.5,136.8 392.5,136.8 "/>
    <polygon class="st1" points="383.1,127.4 381.2,129.4 380.8,129 380.5,129.4 328.9,77.8 328,76.9 321.1,70 321.1,70 319.1,68
	319,67.9 355.4,31.6 360,31.6 333.4,58.2 331.1,60.5 328.4,63.2 326.1,65.5 323.6,68 328.7,73 331.2,75.5 333.5,77.8 382.8,127.1
	"/>
    <polygon class="st1" points="387.9,122.6 389.9,124.6 389.9,124.6 387.7,126.7 387.6,126.9 387.6,126.9 385.2,124.6 336,75.3
	333.7,73 331.1,70.5 328.8,68.2 331.1,65.9 333.8,63.2 336.1,60.9 360,37 360,41.6 338.4,63.2 333.5,68.2 336,70.7 338.3,73
	387.6,122.3 "/>
    <polygon class="st1" points="392.7,131.7 392.5,131.9 392.3,131.7 390.2,129.6 390,129.4 390.2,129.2 390.4,129.4 "/>
    <rect x="396" y="133.9" transform="matrix(0.707 -0.7072 0.7072 0.707 20.3995 319.7376)" class="st1" width="0.2" height="2.8"/>
    <polygon class="st1" points="402.3,127.1 400,129.4 395.2,124.6 395.2,124.6 395,124.4 392.5,121.9 394.5,120 394.8,119.6
	397.5,122.3 399.8,124.6 399.8,124.6 "/>
    <polygon class="st1" points="394.8,119.6 394.5,120 392.5,121.9 392.5,121.9 390.6,120 390.2,119.6 341,70.4 338.7,68.1 341,65.7
	360,46.7 360,51.3 343.3,68.1 392.5,117.3 "/>
    <polygon class="st1" points="404.3,129 403.9,129.4 401.9,131.3 400,129.4 402.3,127.1 402.3,127.1 "/>
    <polygon class="st1" points="399.3,134 397.2,136.1 395.2,134.2 395,134.4 395,134.4 392.5,131.9 392.7,131.7 390.4,129.4
	390.2,129.2 390,129.4 387.6,126.9 387.7,126.7 389.9,124.6 392.4,127.1 392.5,127.2 394.7,129.4 397.3,132 397.3,132 "/>
    <polygon class="st1" points="466,68 404.6,129.4 404.3,129.7 402.3,131.7 399.8,134.2 399.8,134.2 394.8,139.1 394.8,139.2
	392.9,141.1 392.5,140.8 394.5,138.8 392.5,136.8 395,134.4 395,134.4 395.2,134.2 397.2,136.1 399.3,134 397.3,132 397.3,132
	402.3,127.1 402.3,127.1 463.7,65.7 "/>
    <polygon class="st1" points="392.7,131.7 392.5,131.9 390,134.4 389.9,134.2 389.9,134.2 387.7,132 390.4,129.4 "/>
    <polygon class="st1" points="397.5,126.9 395,129.4 394.8,129.6 394.7,129.4 392.5,127.2 392.7,127.1 395.2,124.6 "/>
    <polygon class="st1" points="461.2,63.2 399.8,124.6 399.8,124.6 397.5,122.3 458.9,60.9 "/>
    <polygon class="st1" points="456.2,58.2 394.8,119.6 394.5,120 392.5,121.9 392.5,121.9 390,124.4 389.9,124.6 389.9,124.6
	387.7,126.7 387.6,126.9 387.6,126.9 385.1,129.4 385.1,129.4 383.1,127.4 381.2,129.4 380.8,129 385.2,124.6 387.6,122.3
	390.2,119.6 392.2,117.7 392.5,117.3 453.9,55.9 "/>
    <rect x="383" y="75.8" transform="matrix(0.7072 -0.7071 0.7071 0.7072 72.5923 330.0594)" class="st1" width="103.4" height="3.3"/>
    <polygon class="st1" points="404.2,120.2 401.9,117.9 475.1,44.6 477.5,46.9 "/>
    <rect x="392.8" y="85.5" transform="matrix(0.7072 -0.7071 0.7071 0.7072 68.5483 339.8216)" class="st1" width="103.4" height="3.3"/>
    <g>
	<g>
		<polygon class="st1" points="486,40.2 482,36.2 489.1,33.2 		"/>
        <path class="st1" d="M486.4,42.9l-7.1-7.1l13.1-5.6L486.4,42.9z M484.9,36.8l0.6,0.6l0.5-1L484.9,36.8z"/>
	</g>
</g>
    <path class="st1" d="M482.2,51.7l-12.1-12.1l12.3-5.3l5.4,5.4L482.2,51.7z M475.8,40.5l5.7,5.7l2.5-5.7l-2.4-2.4L475.8,40.5z"/>
    <path class="st1" d="M407.3,196.7h-29.9v-29.9h29.9V196.7z M380.6,193.4H404V170h-23.3V193.4z"/>
    <rect x="379" y="180.1" class="st1" width="26.6" height="3.3"/>
    <rect x="390.7" y="168.4" class="st1" width="3.3" height="26.6"/>
</svg>
