<svg xmlns="http://www.w3.org/2000/svg" width="50" height="50" viewBox="-3 -3 22 22" id="icon">
    <path d="M9.5 4.5h2v-1h-2v1zm0 6h2v-1h-2v1zm0-4h2v-1h-2v1zm0 2h2v-1h-2v1zm-3 1h-2v1h2v-1zm8-8h-1a1 1 0 0 0-1-1h-9a1 1 0 0 0-1 1h-1a1 1 0 0 0-1 1v12a1 1 0 0 0 1 1h13a1 1 0 0 0 1-1v-12a1 1 0 0 0-1-1zm-6 0H12c.274 0 .5.224.5.5v10a.5.5 0 0 1-.5.5H8.5v-11zm-5 .5a.5.5 0 0 1 .5-.5h3.5v11H4a.5.5 0 0 1-.5-.5V2zm11 12a.5.5 0 0 1-.5.5H2a.5.5 0 0 1-.5-.5V3a.5.5 0 0 1 .5-.5h.5v10a1 1 0 0 0 1 1h9a1 1 0 0 0 1-1v-10h.5a.5.5 0 0 1 .5.5v11zm-8-6.5h-2v1h2v-1zm0-2h-2v1h2v-1zm0-2h-2v1h2v-1z"></path>
</svg>
