<svg xmlns="http://www.w3.org/2000/svg" width="50" height="50" viewBox="-3 -3 22 22" id="icon">
    <path d="M3.01 12.002h2.993v-1H3.01v1zM6.002 6c0 1.104.9 2 2.012 2 1.11 0 2.01-.896 2.01-2s-.9-2-2.01-2a2.006 2.006 0 0 0-2.012 2zm2.012-1c.56 0 1.014.448 1.014 1 0 .553-.455 1-1.015 1C7.455 7 7 6.553 7 6c0-.55.454-1 1.015-1zM3.01 10.003h2.993v-1H3.01v1zm12.834-3.877L8.374.14a.5.5 0 0 0-.375-.143.503.503 0 0 0-.376.143L.152 6.125a.51.51 0 0 0 .72.72l.14-.11V15a1 1 0 0 0 1 1H13.985a1 1 0 0 0 .998-1V6.734l.14.112a.51.51 0 1 0 .72-.72zm-4.852 8.877H8v-5h2.992v5zm2.994-.5a.5.5 0 0 1-.5.5H11.99v-6H7v6H2.51a.5.5 0 0 1-.5-.5V5.934L8 1.137l5.986 4.797v8.568z"></path>
</svg>
